<?xml version="1.0" encoding="UTF-8" standalone="no"?>
<!-- Created with Inkscape (http://www.inkscape.org/) -->

<svg
   xmlns:dc="http://purl.org/dc/elements/1.1/"
   xmlns:cc="http://creativecommons.org/ns#"
   xmlns:rdf="http://www.w3.org/1999/02/22-rdf-syntax-ns#"
   xmlns:svg="http://www.w3.org/2000/svg"
   xmlns="http://www.w3.org/2000/svg"
   xmlns:sodipodi="http://sodipodi.sourceforge.net/DTD/sodipodi-0.dtd"
   xmlns:inkscape="http://www.inkscape.org/namespaces/inkscape"
   width="256"
   height="256"
   viewBox="0 0 67.733332 67.733335"
   version="1.1"
   id="svg8"
   inkscape:version="0.92.2 2405546, 2018-03-11"
   sodipodi:docname="planets.svg">
  <defs
     id="defs2" />
  <sodipodi:namedview
     id="base"
     pagecolor="#282828"
     bordercolor="#666666"
     borderopacity="1.0"
     inkscape:pageopacity="0"
     inkscape:pageshadow="2"
     inkscape:zoom="0.7"
     inkscape:cx="404.8767"
     inkscape:cy="-75.480133"
     inkscape:document-units="px"
     inkscape:current-layer="layer1"
     showgrid="true"
     units="px"
     inkscape:snap-bbox="true"
     inkscape:bbox-nodes="true"
     inkscape:window-width="1920"
     inkscape:window-height="1052"
     inkscape:window-x="1920"
     inkscape:window-y="0"
     inkscape:window-maximized="1"
     inkscape:snap-global="true"
     inkscape:snap-nodes="true"
     inkscape:snap-grids="true"
     inkscape:bbox-paths="true"
     inkscape:object-paths="true" />
  <metadata
     id="metadata5">
    <rdf:RDF>
      <cc:Work
         rdf:about="">
        <dc:format>image/svg+xml</dc:format>
        <dc:type
           rdf:resource="http://purl.org/dc/dcmitype/StillImage" />
        <dc:title />
      </cc:Work>
    </rdf:RDF>
  </metadata>
  <g
     inkscape:label="Layer 1"
     inkscape:groupmode="layer"
     id="layer1"
     transform="translate(0,-229.26665)">
    <g
       id="g1443"
       inkscape:label="pink">
      <circle
         r="33.866673"
         cy="263.1333"
         cx="101.60001"
         id="path817"
         style="opacity:1;fill:#ff5599;fill-opacity:1;stroke:none;stroke-width:4.23333311;stroke-linecap:round;stroke-linejoin:round;stroke-miterlimit:4;stroke-dasharray:none;stroke-dashoffset:0;stroke-opacity:1;paint-order:normal" />
      <path
         inkscape:connector-curvature="0"
         id="rect1179"
         d="m 69.441755,252.58822 a 33.866672,33.866672 0 0 0 -1.708423,10.5451 33.866672,33.866672 0 0 0 1.420585,9.62111 c 14.597097,3.03344 33.291463,7.77376 44.683063,7.27605 6.17784,-0.26992 12.41644,-0.876 17.89658,-1.51464 a 33.866672,33.866672 0 0 0 3.7331,-15.38252 33.866672,33.866672 0 0 0 -0.44596,-5.36763 c -6.27192,0.85195 -13.88248,1.66501 -21.18372,1.66501 -11.20437,0 -29.400714,-3.8206 -44.395225,-6.84248 z"
         style="opacity:1;fill:#de87cd;fill-opacity:1;stroke:none;stroke-width:4.23333311;stroke-linecap:round;stroke-linejoin:round;stroke-miterlimit:4;stroke-dasharray:none;stroke-dashoffset:0;stroke-opacity:1;paint-order:normal" />
      <circle
         r="4.2333426"
         cy="254.66666"
         cx="93.133331"
         id="path838"
         style="opacity:1;fill:#782144;fill-opacity:1;stroke:none;stroke-width:4.23334265;stroke-linecap:round;stroke-linejoin:round;stroke-miterlimit:4;stroke-dasharray:none;stroke-dashoffset:0;stroke-opacity:1;paint-order:normal" />
      <circle
         style="opacity:1;fill:#782144;fill-opacity:1;stroke:none;stroke-width:8.46665668;stroke-linecap:round;stroke-linejoin:round;stroke-miterlimit:4;stroke-dasharray:none;stroke-dashoffset:0;stroke-opacity:1;paint-order:normal"
         id="circle840"
         cx="110.06667"
         cy="271.59998"
         r="8.4666567" />
      <rect
         ry="4.2333331"
         y="237.73332"
         x="101.6"
         height="8.4666662"
         width="25.4"
         id="rect842"
         style="opacity:1;fill:#ffffff;fill-opacity:1;stroke:none;stroke-width:4.23333311;stroke-linecap:round;stroke-linejoin:round;stroke-miterlimit:4;stroke-dasharray:none;stroke-dashoffset:0;stroke-opacity:1;paint-order:normal" />
      <rect
         style="opacity:1;fill:#ffffff;fill-opacity:1;stroke:none;stroke-width:2.82222247;stroke-linecap:round;stroke-linejoin:round;stroke-miterlimit:4;stroke-dasharray:none;stroke-dashoffset:0;stroke-opacity:1;paint-order:normal"
         id="rect844"
         width="16.933334"
         height="5.6444449"
         x="88.900002"
         y="280.06665"
         ry="2.8222225" />
      <rect
         ry="3.5277779"
         y="263.13333"
         x="71.966667"
         height="7.0555558"
         width="21.166666"
         id="rect846"
         style="opacity:1;fill:#ffffff;fill-opacity:1;stroke:none;stroke-width:3.52777791;stroke-linecap:round;stroke-linejoin:round;stroke-miterlimit:4;stroke-dasharray:none;stroke-dashoffset:0;stroke-opacity:1;paint-order:normal" />
      <circle
         style="opacity:1;fill:#782144;fill-opacity:1;stroke:none;stroke-width:2.11667585;stroke-linecap:round;stroke-linejoin:round;stroke-miterlimit:4;stroke-dasharray:none;stroke-dashoffset:0;stroke-opacity:1;paint-order:normal"
         id="circle848"
         cx="107.95"
         cy="252.54997"
         r="2.1166759" />
    </g>
    <g
       id="g922">
      <circle
         r="33.866673"
         cy="263.13333"
         cx="169.33334"
         id="circle900"
         style="opacity:1;fill:#2c2ca0;fill-opacity:1;stroke:none;stroke-width:4.23333311;stroke-linecap:round;stroke-linejoin:round;stroke-miterlimit:4;stroke-dasharray:none;stroke-dashoffset:0;stroke-opacity:1;paint-order:normal" />
      <path
         inkscape:connector-curvature="0"
         id="rect902"
         transform="matrix(0.26458333,0,0,0.26458333,0,229.26665)"
         d="m 592,157.9668 c -6.33144,0 -11.42773,5.09629 -11.42773,11.42773 0,6.33144 5.09629,11.42969 11.42773,11.42969 h 18.39258 c 5.17431,1.09471 9.03515,5.66606 9.03515,11.17578 0,5.50972 -3.86084,10.08107 -9.03515,11.17578 H 576 c -6.33144,0 -11.42773,5.09825 -11.42773,11.42969 0,6.33144 5.09629,11.42773 11.42773,11.42773 h 89.14258 c 6.33144,0 11.42969,-5.09629 11.42969,-11.42773 0,-6.33144 -5.09825,-11.42969 -11.42969,-11.42969 H 662.75 c -5.17431,-1.09471 -9.03516,-5.66606 -9.03516,-11.17578 0,-5.50972 3.86085,-10.08107 9.03516,-11.17578 h 18.39258 c 6.33144,0 11.42969,-5.09825 11.42969,-11.42969 0,-6.33144 -5.09825,-11.42773 -11.42969,-11.42773 z"
         style="opacity:1;fill:#37c871;fill-opacity:1;stroke:none;stroke-width:11.42857075;stroke-linecap:round;stroke-linejoin:round;stroke-miterlimit:4;stroke-dasharray:none;stroke-dashoffset:0;stroke-opacity:1;paint-order:normal" />
      <path
         inkscape:connector-curvature="0"
         id="rect908"
         transform="matrix(0.26458333,0,0,0.26458333,0,229.26665)"
         d="m 546.28516,50.539062 c -6.33144,0 -11.42774,5.096298 -11.42774,11.427735 0,6.331437 5.0963,11.427734 11.42774,11.427734 h 6.95703 c 5.17827,1.091723 9.04297,5.66521 9.04297,11.177735 0,5.509724 -3.86085,10.081074 -9.03516,11.175781 h -6.96484 c -6.33144,0 -11.42774,5.096293 -11.42774,11.427733 0,6.33144 5.0963,11.42969 11.42774,11.42969 H 608 c 6.33144,0 11.42773,-5.09825 11.42773,-11.42969 0,-6.33144 -5.09629,-11.427733 -11.42773,-11.427733 h -2.39258 c -5.17431,-1.094707 -9.03515,-5.666057 -9.03515,-11.175781 0,-5.512525 3.86469,-10.086012 9.04296,-11.177735 h 29.8125 c 6.33144,0 11.42969,-5.096297 11.42969,-11.427734 0,-6.331437 -5.09825,-11.427735 -11.42969,-11.427735 z"
         style="opacity:1;fill:#37c871;fill-opacity:1;stroke:none;stroke-width:11.42857075;stroke-linecap:round;stroke-linejoin:round;stroke-miterlimit:4;stroke-dasharray:none;stroke-dashoffset:0;stroke-opacity:1;paint-order:normal" />
      <path
         inkscape:connector-curvature="0"
         id="rect914"
         transform="matrix(0.26458333,0,0,0.26458333,0,229.26665)"
         d="m 667.42773,82.285156 c -6.33143,0 -11.42773,5.09825 -11.42773,11.429688 0,6.331436 5.0963,11.427736 11.42773,11.427736 H 672 c 6.33146,0 11.42773,4.84435 11.42773,11.17578 0,6.33143 -5.09627,11.17578 -11.42773,11.17578 h -4.57227 c -6.33143,0 -11.42773,5.09825 -11.42773,11.42969 0,6.33144 5.0963,11.42773 11.42773,11.42773 h 89.14454 c 6.33143,0 11.42773,-5.09629 11.42773,-11.42773 0,-6.33144 -5.0963,-11.42969 -11.42773,-11.42969 h -27.42969 c -6.33143,0 -11.42774,-4.84435 -11.42774,-11.17578 0,-6.33143 5.09631,-11.17578 11.42774,-11.17578 6.33144,0 11.42969,-5.0963 11.42969,-11.427736 0,-6.331438 -5.09825,-11.429688 -11.42969,-11.429688 z"
         style="opacity:1;fill:#37c871;fill-opacity:1;stroke:none;stroke-width:11.42857075;stroke-linecap:round;stroke-linejoin:round;stroke-miterlimit:4;stroke-dasharray:none;stroke-dashoffset:0;stroke-opacity:1;paint-order:normal" />
      <rect
         style="opacity:1;fill:#ffffff;fill-opacity:1;stroke:none;stroke-width:4.23333311;stroke-linecap:round;stroke-linejoin:round;stroke-miterlimit:4;stroke-dasharray:none;stroke-dashoffset:0;stroke-opacity:1;paint-order:normal"
         id="rect920"
         width="25.4"
         height="8.4666662"
         x="152.40001"
         y="250.43333"
         ry="4.2333331" />
      <rect
         ry="3.5277779"
         y="267.36667"
         x="169.33333"
         height="7.0555558"
         width="21.166668"
         id="rect922"
         style="opacity:1;fill:#ffffff;fill-opacity:1;stroke:none;stroke-width:3.52777791;stroke-linecap:round;stroke-linejoin:round;stroke-miterlimit:4;stroke-dasharray:none;stroke-dashoffset:0;stroke-opacity:1;paint-order:normal" />
      <rect
         style="opacity:1;fill:#ffffff;fill-opacity:1;stroke:none;stroke-width:3.52777791;stroke-linecap:round;stroke-linejoin:round;stroke-miterlimit:4;stroke-dasharray:none;stroke-dashoffset:0;stroke-opacity:1;paint-order:normal"
         id="rect924"
         width="21.166668"
         height="7.0555558"
         x="139.7"
         y="273.01114"
         ry="3.5277779" />
    </g>
    <g
       id="g913">
      <circle
         r="33.866673"
         cy="330.86667"
         cx="101.60001"
         id="circle983"
         style="opacity:1;fill:#37c8ab;fill-opacity:1;stroke:none;stroke-width:4.23333311;stroke-linecap:round;stroke-linejoin:round;stroke-miterlimit:4;stroke-dasharray:none;stroke-dashoffset:0;stroke-opacity:1;paint-order:normal" />
      <circle
         r="4.2333426"
         cy="228.04706"
         cx="-263.23007"
         id="circle985"
         style="opacity:1;fill:#217867;fill-opacity:1;stroke:none;stroke-width:4.23334265;stroke-linecap:round;stroke-linejoin:round;stroke-miterlimit:4;stroke-dasharray:none;stroke-dashoffset:0;stroke-opacity:1;paint-order:normal"
         transform="matrix(-0.8660254,-0.5,-0.5,0.8660254,0,0)" />
      <circle
         style="opacity:1;fill:#217867;fill-opacity:1;stroke:none;stroke-width:8.46665668;stroke-linecap:round;stroke-linejoin:round;stroke-miterlimit:4;stroke-dasharray:none;stroke-dashoffset:0;stroke-opacity:1;paint-order:normal"
         id="circle987"
         cx="-246.29672"
         cy="244.98036"
         r="8.4666567"
         transform="matrix(-0.8660254,-0.5,-0.5,0.8660254,0,0)" />
      <circle
         style="opacity:1;fill:#217867;fill-opacity:1;stroke:none;stroke-width:2.11667585;stroke-linecap:round;stroke-linejoin:round;stroke-miterlimit:4;stroke-dasharray:none;stroke-dashoffset:0;stroke-opacity:1;paint-order:normal"
         id="circle989"
         cx="-248.41341"
         cy="225.93039"
         r="2.1166759"
         transform="matrix(-0.8660254,-0.5,-0.5,0.8660254,0,0)" />
      <path
         inkscape:connector-curvature="0"
         id="rect991"
         transform="matrix(0.26458333,0,0,0.26458333,0,229.26665)"
         d="M 267.42773,361.14258 C 261.0963,361.14258 256,366.24083 256,372.57227 256,378.9037 261.0963,384 267.42773,384 H 272 c 6.33144,0 11.42773,5.09631 11.42773,11.42773 0,6.33143 -5.09629,11.42969 -11.42773,11.42969 h -4.57227 c -6.33143,0 -11.42773,5.0963 -11.42773,11.42774 0,6.33143 5.0963,11.42968 11.42773,11.42968 h 61.71485 c 6.33144,0 11.42969,-5.09825 11.42969,-11.42968 0,-6.33144 -5.09825,-11.42774 -11.42969,-11.42774 -6.33144,0 -11.42774,-5.09826 -11.42774,-11.42969 0,-6.33142 5.0963,-11.42773 11.42774,-11.42773 h 27.42969 C 362.9037,384 368,378.9037 368,372.57227 c 0,-6.33144 -5.0963,-11.42969 -11.42773,-11.42969 z"
         style="opacity:1;fill:#ffffff;fill-opacity:1;stroke:none;stroke-width:11.42857075;stroke-linecap:round;stroke-linejoin:round;stroke-miterlimit:4;stroke-dasharray:none;stroke-dashoffset:0;stroke-opacity:1;paint-order:normal" />
      <path
         inkscape:connector-curvature="0"
         id="rect999"
         transform="matrix(0.26458333,0,0,0.26458333,0,229.26665)"
         d="m 434.28516,297.14258 c -6.33144,0 -11.42774,5.09825 -11.42774,11.42969 0,6.33143 5.0963,11.42773 11.42774,11.42773 h 4.57226 c 6.33147,0 11.42774,5.09631 11.42774,11.42773 0,6.33139 -5.09627,11.42969 -11.42774,11.42969 H 437 c -6.33144,0 -11.42773,5.0963 -11.42773,11.42774 0,6.33143 5.09629,11.42968 11.42773,11.42968 h 61.71484 c 6.33144,0 11.42774,-5.09825 11.42774,-11.42968 0,-6.33144 -5.0963,-11.42774 -11.42774,-11.42774 H 496 c -6.33143,0 -11.42773,-5.0983 -11.42773,-11.42969 C 484.57227,325.09631 489.66857,320 496,320 h 4.57227 C 506.9037,320 512,314.9037 512,308.57227 c 0,-6.33144 -5.0963,-11.42969 -11.42773,-11.42969 z"
         style="opacity:1;fill:#ffffff;fill-opacity:1;stroke:none;stroke-width:11.42857075;stroke-linecap:round;stroke-linejoin:round;stroke-miterlimit:4;stroke-dasharray:none;stroke-dashoffset:0;stroke-opacity:1;paint-order:normal" />
      <path
         inkscape:connector-curvature="0"
         id="rect1005"
         transform="matrix(0.26458333,0,0,0.26458333,0,229.26665)"
         d="m 422.71484,417.14258 c -6.33143,0 -11.42968,5.09825 -11.42968,11.42969 0,6.33143 5.09825,11.42773 11.42968,11.42773 H 423 c 6.33143,0 11.42773,5.09627 11.42773,11.42773 0,6.33139 -5.0963,11.42969 -11.42773,11.42969 h 1.88281 c -6.33143,0 -11.42773,5.0963 -11.42773,11.42774 0,6.33143 5.0963,11.42968 11.42773,11.42968 h 61.71485 c 6.33143,0 11.42773,-5.09825 11.42773,-11.42968 0,-6.33144 -5.0963,-11.42774 -11.42773,-11.42774 h -6.45508 c -6.33147,0 -11.42774,-5.09826 -11.42774,-11.42969 0,-6.33142 5.09627,-11.42773 11.42774,-11.42773 H 489 c 6.33144,0 11.42773,-5.0963 11.42773,-11.42773 0,-6.33144 -5.09629,-11.42969 -11.42773,-11.42969 z"
         style="opacity:1;fill:#ffffff;fill-opacity:1;stroke:none;stroke-width:11.42857075;stroke-linecap:round;stroke-linejoin:round;stroke-miterlimit:4;stroke-dasharray:none;stroke-dashoffset:0;stroke-opacity:1;paint-order:normal" />
      <circle
         transform="matrix(-0.8660254,-0.5,-0.5,0.8660254,0,0)"
         r="5.253859"
         cy="230.68344"
         cx="-232.12819"
         id="circle1011"
         style="opacity:1;fill:#217867;fill-opacity:1;stroke:none;stroke-width:5.25385904;stroke-linecap:round;stroke-linejoin:round;stroke-miterlimit:4;stroke-dasharray:none;stroke-dashoffset:0;stroke-opacity:1;paint-order:normal" />
      <circle
         style="opacity:1;fill:#217867;fill-opacity:1;stroke:none;stroke-width:3.13719773;stroke-linecap:round;stroke-linejoin:round;stroke-miterlimit:4;stroke-dasharray:none;stroke-dashoffset:0;stroke-opacity:1;paint-order:normal"
         id="circle1013"
         cx="-258.16986"
         cy="258.70438"
         r="3.1371977"
         transform="matrix(-0.8660254,-0.5,-0.5,0.8660254,0,0)" />
    </g>
    <g
       id="g1484"
       inkscape:label="yellow">
      <circle
         r="33.866673"
         cy="330.86661"
         cx="169.33334"
         id="circle1064"
         style="opacity:1;fill:#ebd169;fill-opacity:1;stroke:none;stroke-width:4.23333311;stroke-linecap:round;stroke-linejoin:round;stroke-miterlimit:4;stroke-dasharray:none;stroke-dashoffset:0;stroke-opacity:1;paint-order:normal" />
      <path
         style="opacity:1;fill:#ff9955;fill-opacity:1;stroke:none;stroke-width:4.23333311;stroke-linecap:round;stroke-linejoin:round;stroke-miterlimit:4;stroke-dasharray:none;stroke-dashoffset:0;stroke-opacity:1;paint-order:normal"
         d="m 194.99842,309.0044 c -8.1538,-0.0131 -25.2868,4.70204 -31.46681,4.70204 -6.2269,0 -15.12545,-2.0429 -21.81779,-2.39882 a 33.866672,33.866672 0 0 0 -6.09782,16.57315 h 4.2447 c 6.81932,0 16.85159,2.4567 23.67091,2.4567 6.81932,0 26.97489,-5.74105 33.68683,-4.53564 l 5.69681,1.02319 a 33.866672,33.866672 0 0 0 -7.7618,-17.817 c -0.053,-5e-4 -0.10127,-0.004 -0.15503,-0.004 z"
         id="path1066"
         inkscape:connector-curvature="0" />
      <path
         style="opacity:1;fill:#ff7f2a;fill-opacity:1;stroke:none;stroke-width:4.23333311;stroke-linecap:round;stroke-linejoin:round;stroke-miterlimit:4;stroke-dasharray:none;stroke-dashoffset:0;stroke-opacity:1;paint-order:normal"
         d="m 138.15951,336.49833 c -0.76669,0 -1.50022,0.0377 -2.20245,0.10129 a 33.866672,33.866672 0 0 0 3.91088,10.8784 c 7.08104,0.12689 18.43899,1.00236 24.51271,2.62982 6.30259,1.68877 21.59021,4.46717 28.87266,4.7041 a 33.866672,33.866672 0 0 0 7.77472,-12.13001 c -2.16892,0.67549 -4.5521,1.18701 -6.83318,1.18701 -6.81932,0 -20.3902,-2.58412 -26.97716,-4.34909 -6.58696,-1.76497 -22.23886,-3.02152 -29.05818,-3.02152 z"
         id="path1068"
         inkscape:connector-curvature="0" />
      <circle
         style="opacity:1;fill:#b0622d;fill-opacity:1;stroke:none;stroke-width:4.23333311;stroke-linecap:round;stroke-linejoin:round;stroke-miterlimit:4;stroke-dasharray:none;stroke-dashoffset:0;stroke-opacity:1;paint-order:normal"
         id="circle1070"
         cx="190.57559"
         cy="335.02435"
         r="4.1577382" />
      <circle
         r="2.1922579"
         cy="354.22556"
         cx="154.44107"
         id="circle1072"
         style="opacity:1;fill:#b0622d;fill-opacity:1;stroke:none;stroke-width:2.2321167;stroke-linecap:round;stroke-linejoin:round;stroke-miterlimit:4;stroke-dasharray:none;stroke-dashoffset:0;stroke-opacity:1;paint-order:normal" />
      <circle
         style="opacity:1;fill:#b0622d;fill-opacity:1;stroke:none;stroke-width:2.2321167;stroke-linecap:round;stroke-linejoin:round;stroke-miterlimit:4;stroke-dasharray:none;stroke-dashoffset:0;stroke-opacity:1;paint-order:normal"
         id="circle1074"
         cx="162.90775"
         cy="358.30771"
         r="2.1922579" />
      <circle
         style="opacity:1;fill:#b0622d;fill-opacity:1;stroke:none;stroke-width:4.31030035;stroke-linecap:round;stroke-linejoin:round;stroke-miterlimit:4;stroke-dasharray:none;stroke-dashoffset:0;stroke-opacity:1;paint-order:normal"
         id="circle1076"
         cx="-160.86667"
         cy="305.46664"
         r="4.2333317"
         transform="scale(-1,1)" />
    </g>
    <g
       id="g1433"
       inkscape:label="purple">
      <circle
         style="opacity:1;fill:#8d5fd3;fill-opacity:1;stroke:none;stroke-width:4.23333311;stroke-linecap:round;stroke-linejoin:round;stroke-miterlimit:4;stroke-dasharray:none;stroke-dashoffset:0;stroke-opacity:1;paint-order:normal"
         id="circle866"
         cx="33.866673"
         cy="263.1333"
         r="33.866673" />
      <path
         inkscape:connector-curvature="0"
         id="rect1042"
         d="m 59.531765,241.27109 c -8.153802,-0.0131 -25.286803,4.70203 -31.466811,4.70203 -6.226904,0 -15.125449,-2.04289 -21.8177902,-2.39882 A 33.866672,33.866672 0 0 0 0.14934489,260.14745 H 4.394047 c 6.81932,0 16.851586,2.4567 23.670907,2.4567 6.819318,0 26.974893,-5.74105 33.686832,-4.53564 l 5.69681,1.02319 a 33.866672,33.866672 0 0 0 -7.761801,-17.817 c -0.05297,-5e-4 -0.101269,-0.004 -0.15503,-0.004 z"
         style="opacity:1;fill:#7137c8;fill-opacity:1;stroke:none;stroke-width:4.23333311;stroke-linecap:round;stroke-linejoin:round;stroke-miterlimit:4;stroke-dasharray:none;stroke-dashoffset:0;stroke-opacity:1;paint-order:normal" />
      <circle
         transform="matrix(0.8660254,0.5,0.5,-0.8660254,0,0)"
         style="opacity:1;fill:#442178;fill-opacity:1;stroke:none;stroke-width:4.23334265;stroke-linecap:round;stroke-linejoin:round;stroke-miterlimit:4;stroke-dasharray:none;stroke-dashoffset:0;stroke-opacity:1;paint-order:normal"
         id="circle1110"
         cx="151.86221"
         cy="-233.09579"
         r="4.2333426" />
      <circle
         transform="matrix(0.8660254,0.5,0.5,-0.8660254,0,0)"
         r="8.4666567"
         cy="-216.16251"
         cx="168.79556"
         id="circle1112"
         style="opacity:1;fill:#442178;fill-opacity:1;stroke:none;stroke-width:8.46665668;stroke-linecap:round;stroke-linejoin:round;stroke-miterlimit:4;stroke-dasharray:none;stroke-dashoffset:0;stroke-opacity:1;paint-order:normal" />
      <circle
         transform="matrix(0.8660254,0.5,0.5,-0.8660254,0,0)"
         r="2.1166759"
         cy="-235.21249"
         cx="166.67888"
         id="circle1114"
         style="opacity:1;fill:#442178;fill-opacity:1;stroke:none;stroke-width:2.11667585;stroke-linecap:round;stroke-linejoin:round;stroke-miterlimit:4;stroke-dasharray:none;stroke-dashoffset:0;stroke-opacity:1;paint-order:normal" />
      <circle
         style="opacity:1;fill:#442178;fill-opacity:1;stroke:none;stroke-width:3.34481406;stroke-linecap:round;stroke-linejoin:round;stroke-miterlimit:4;stroke-dasharray:none;stroke-dashoffset:0;stroke-opacity:1;paint-order:normal"
         id="circle1116"
         cx="181.18762"
         cy="-227.38246"
         r="3.3448141"
         transform="matrix(0.8660254,0.5,0.5,-0.8660254,0,0)" />
      <rect
         style="opacity:1;fill:#ffffff;fill-opacity:1;stroke:none;stroke-width:3.52777791;stroke-linecap:round;stroke-linejoin:round;stroke-miterlimit:4;stroke-dasharray:none;stroke-dashoffset:0;stroke-opacity:1;paint-order:normal"
         id="rect1125"
         width="21.166666"
         height="7.0555558"
         x="4.2333336"
         y="264.54443"
         ry="3.5277779" />
      <rect
         style="opacity:1;fill:#ffffff;fill-opacity:1;stroke:none;stroke-width:4.23333311;stroke-linecap:round;stroke-linejoin:round;stroke-miterlimit:4;stroke-dasharray:none;stroke-dashoffset:0;stroke-opacity:1;paint-order:normal"
         id="rect1127"
         width="25.4"
         height="8.4666662"
         x="21.166666"
         y="246.19998"
         ry="4.2333331" />
      <rect
         ry="2.8222225"
         y="274.42221"
         x="42.333332"
         height="5.6444449"
         width="16.933334"
         id="rect1129"
         style="opacity:1;fill:#ffffff;fill-opacity:1;stroke:none;stroke-width:2.82222247;stroke-linecap:round;stroke-linejoin:round;stroke-miterlimit:4;stroke-dasharray:none;stroke-dashoffset:0;stroke-opacity:1;paint-order:normal" />
      <rect
         style="opacity:1;fill:#ffffff;fill-opacity:1;stroke:none;stroke-width:2.82222247;stroke-linecap:round;stroke-linejoin:round;stroke-miterlimit:4;stroke-dasharray:none;stroke-dashoffset:0;stroke-opacity:1;paint-order:normal"
         id="rect1131"
         width="16.933334"
         height="5.6444449"
         x="16.933332"
         y="282.88889"
         ry="2.8222225" />
    </g>
  </g>
</svg>
